<svg xmlns="http://www.w3.org/2000/svg" viewBox="0 0 400 320" role="img" aria-label="Sofá 3 lugares">
  <defs>
    <linearGradient id="floor" x1="0" y1="0" x2="0" y2="1">
      <stop offset="0%" stop-color="#ffffff"/>
      <stop offset="58%" stop-color="#fffef6"/>
      <stop offset="100%" stop-color="#FFE566"/>
    </linearGradient>
    <radialGradient id="glow" cx="50%" cy="82%" r="48%">
      <stop offset="0%" stop-color="#FFD54F" stop-opacity="0.5"/>
      <stop offset="100%" stop-color="#ffffff" stop-opacity="0"/>
    </radialGradient>
    <linearGradient id="fabric" x1="0" y1="0" x2="1" y2="1">
      <stop offset="0%" stop-color="#9e9e9e"/>
      <stop offset="100%" stop-color="#616161"/>
    </linearGradient>
    <filter id="sh" x="-15%" y="-5%" width="130%" height="120%">
      <feDropShadow dx="0" dy="10" stdDeviation="12" flood-color="#F9A825" flood-opacity="0.25"/>
    </filter>
  </defs>
  <rect width="400" height="320" fill="url(#floor)"/>
  <ellipse cx="200" cy="268" rx="150" ry="22" fill="url(#glow)"/>
  <ellipse cx="200" cy="272" rx="118" ry="10" fill="#FFD54F" opacity="0.35"/>
  <g filter="url(#sh)">
    <rect x="72" y="168" width="256" height="72" rx="14" fill="#757575"/>
    <rect x="88" y="108" width="224" height="72" rx="18" fill="url(#fabric)" stroke="#FFC107" stroke-width="3"/>
    <rect x="104" y="124" width="192" height="44" rx="10" fill="#8d8d8d"/>
    <path d="M88 108 L72 148 L72 168 L88 168 Z" fill="#616161"/>
    <path d="M312 108 L328 148 L328 168 L312 168 Z" fill="#616161"/>
    <rect x="72" y="148" width="16" height="92" rx="6" fill="#525252"/>
    <rect x="312" y="148" width="16" height="92" rx="6" fill="#525252"/>
  </g>
</svg>
